<svg width="93" height="155" viewBox="0 0 93 155" fill="none" xmlns="http://www.w3.org/2000/svg">
<g clip-path="url(#clip0_133_22)">
<path d="M56.1875 139.5C56.1875 136.836 55.2389 134.555 53.3418 132.658C51.4447 130.761 49.1641 129.812 46.5 129.812C43.8359 129.812 41.5553 130.761 39.6582 132.658C37.7611 134.555 36.8125 136.836 36.8125 139.5C36.8125 142.164 37.7611 144.445 39.6582 146.342C41.5553 148.239 43.8359 149.188 46.5 149.188C49.1641 149.188 51.4447 148.239 53.3418 146.342C55.2389 144.445 56.1875 142.164 56.1875 139.5ZM81.375 120.125V34.875C81.375 33.8255 80.9915 32.9173 80.2246 32.1504C79.4577 31.3835 78.5495 31 77.5 31H15.5C14.4505 31 13.5423 31.3835 12.7754 32.1504C12.0085 32.9173 11.625 33.8255 11.625 34.875V120.125C11.625 121.174 12.0085 122.083 12.7754 122.85C13.5423 123.617 14.4505 124 15.5 124H77.5C78.5495 124 79.4577 123.617 80.2246 122.85C80.9915 122.083 81.375 121.174 81.375 120.125ZM58.125 17.4375C58.125 16.1458 57.4792 15.5 56.1875 15.5H36.8125C35.5208 15.5 34.875 16.1458 34.875 17.4375C34.875 18.7292 35.5208 19.375 36.8125 19.375H56.1875C57.4792 19.375 58.125 18.7292 58.125 17.4375ZM93 15.5V139.5C93 143.698 91.4661 147.331 88.3984 150.398C85.3307 153.466 81.6979 155 77.5 155H15.5C11.3021 155 7.66927 153.466 4.60156 150.398C1.53385 147.331 0 143.698 0 139.5V15.5C0 11.3021 1.53385 7.66927 4.60156 4.60156C7.66927 1.53385 11.3021 0 15.5 0H77.5C81.6979 0 85.3307 1.53385 88.3984 4.60156C91.4661 7.66927 93 11.3021 93 15.5Z" fill="#002A5B"/>
<path d="M31.0115 69.5C23.54 71.4267 18.6666 74.7275 18.6666 78.4958C18.6666 84.4657 31.1475 89.3333 46.575 89.3333C48.6716 89.3333 50.145 89.2228 52.1 89.0585" stroke="#00C2FF" stroke-width="2" stroke-linecap="round" stroke-linejoin="round"/>
<path d="M40.8715 89.05C39.7013 87.3613 38.5878 85.8398 37.5282 83.95C29.7337 70.0667 27.6455 56.2683 32.9098 53.1432C36.1682 51.1683 41.543 53.86 47.0028 59.5295" stroke="#00C2FF" stroke-width="2" stroke-linecap="round" stroke-linejoin="round"/>
<path d="M31.2155 87.5965C29.2265 95.2125 29.6288 100.958 32.8021 102.882C37.854 105.942 48.0653 97.3347 55.5906 83.6043C56.6106 81.706 57.5249 79.8379 58.3333 78" stroke="#00C2FF" stroke-width="2" stroke-linecap="round" stroke-linejoin="round"/>
<path d="M47 96.4733C52.4627 102.14 57.8148 104.832 61.1043 102.857C66.346 99.7345 64.2805 85.9362 56.4775 72.05C55.3895 70.1318 54.276 68.6387 53.1342 66.95" stroke="#00C2FF" stroke-width="2" stroke-linecap="round" stroke-linejoin="round"/>
<path d="M63.0366 86.5C70.4372 84.5535 75.3332 81.2583 75.3332 77.5013C75.3332 71.523 62.8439 66.6667 47.4391 66.6667C45.3226 66.6667 43.8521 66.7488 41.8999 66.9132" stroke="#00C2FF" stroke-width="2" stroke-linecap="round" stroke-linejoin="round"/>
<path d="M35.6666 78C36.4741 76.13 37.3865 74.294 38.4093 72.3957C45.9091 58.671 56.1261 50.0407 61.2063 53.1262C64.3513 55.05 64.782 60.7932 62.793 68.4063M47.7366 78.0425H47.7083C47.68 78.4108 47.3683 78.7225 46.9716 78.7225C46.7819 78.7131 46.6029 78.6316 46.4713 78.4947C46.3396 78.3578 46.2652 78.1758 46.2633 77.9858C46.2633 77.5892 46.575 77.2775 46.9433 77.2775H46.915C47.2833 77.2492 47.6233 77.5892 47.6233 77.9575" stroke="#00C2FF" stroke-width="2" stroke-linecap="round" stroke-linejoin="round"/>
</g>
<defs>
<clipPath id="clip0_133_22">
<rect width="93" height="155" fill="white"/>
</clipPath>
</defs>
</svg>
